<?xml version="1.0" encoding="UTF-8"?>
<svg version="1.1" xmlns="http://www.w3.org/2000/svg" width="442" height="379" fill="currentColor" >
<path d="M0 0 C0.74120087 0.00010071 1.48240173 0.00020142 2.24606323 0.00030518 C18.63143392 0.0435251 34.54078646 2.27483718 50.50566101 6.01361084 C57.17534707 7.50069046 63.56742827 7.81073922 70.38671875 7.84375 C72.10507179 7.8644606 72.10507179 7.8644606 73.85813904 7.8855896 C76.30506427 7.91506031 78.75203586 7.94087496 81.19903564 7.96331787 C87.63437587 8.02542368 94.06909329 8.12440895 100.50390625 8.2265625 C101.78134705 8.24679474 103.05878784 8.26702698 104.37493896 8.28787231 C242.43110428 10.64126647 242.43110428 10.64126647 282.5625 48.3125 C297.75292465 64.31059549 299.80284159 83.18832316 299.59375 104.21484375 C299.34897023 113.64253646 297.72653051 122.4134133 295.3125 131.5 C295.13589844 132.20560059 294.95929688 132.91120117 294.77734375 133.63818359 C291.42059376 146.95639997 286.45493338 160.21513324 280.3125 172.5 C280.08030127 174.16293115 279.895431 175.83258425 279.734375 177.50390625 C273.68998865 236.66632305 254.24249044 295.01243191 212.3125 338.5 C211.15041016 339.75683594 211.15041016 339.75683594 209.96484375 341.0390625 C190.41989103 361.59552362 161.32576456 378.33767178 132.48217773 379.62646484 C110.94242609 380.14295832 88.45677609 379.13605352 69.6171875 367.27734375 C63.79754659 363.70763933 59.65720569 361.97636982 52.75 363.29296875 C47.52432497 364.54907559 42.38889481 366.09979066 37.24609375 367.65625 C7.70737832 376.15207228 -26.64306176 373.87760555 -53.8125 359.375 C-56.49329353 357.85902411 -59.00052777 356.27819994 -61.515625 354.49609375 C-64.97826319 352.31701971 -68.46780439 350.99185065 -72.3125 349.6875 C-85.28421205 345.00095557 -95.01186857 338.16186808 -104.6875 328.5 C-105.41839844 327.78070313 -106.14929688 327.06140625 -106.90234375 326.3203125 C-125.78829529 306.49941286 -133.61474154 277.31605307 -137.9375 251.0625 C-138.08864258 250.14839355 -138.23978516 249.23428711 -138.39550781 248.29248047 C-141.55482977 227.47162163 -142.06405295 206.61602943 -142.05810547 185.60327148 C-142.05794272 182.57763826 -142.07190243 179.55260933 -142.09912109 176.52709961 C-142.54703794 125.90907907 -129.75728706 75.60835965 -93.54296875 38.35546875 C-92.59368317 37.40111524 -91.6419975 36.4491408 -90.6875 35.5 C-89.87925781 34.69175781 -89.07101563 33.88351563 -88.23828125 33.05078125 C-75.36001298 20.85367758 -59.56634395 12.03020753 -42.875 6.25 C-42.21330811 6.01571289 -41.55161621 5.78142578 -40.86987305 5.54003906 C-27.594909 1.18943371 -13.88130565 -0.08046906 0 0 Z M-94.9921875 42.5546875 C-137.53072716 89.03883084 -142.65801117 150.22969177 -140.08984375 210.19921875 C-138.16013857 248.37871729 -133.13174496 295.18225492 -105.6875 324.5 C-104.84445313 325.42167969 -104.00140625 326.34335937 -103.1328125 327.29296875 C-93.98488884 336.89440137 -83.26751555 344.06840361 -70.6875 348.5 C-69.6975 348.17 -68.7075 347.84 -67.6875 347.5 C-68.61369141 346.64341797 -68.61369141 346.64341797 -69.55859375 345.76953125 C-103.91088097 312.88126845 -112.86556861 258.9496465 -113.85841179 213.36334419 C-114.00555885 204.89244531 -114.01644139 196.42117149 -114.00317383 187.94921875 C-113.99853859 184.73651138 -114.00549601 181.52418225 -114.02368164 178.31152344 C-114.28076504 132.43241579 -110.13111967 85.26064089 -76.4375 50.8125 C-42.28833377 17.06543908 7.82540287 11.96198747 53.3125 9.5 C53.3125 9.17 53.3125 8.84 53.3125 8.5 C-2.41686422 -2.68165414 -53.17980386 -0.21068494 -94.9921875 42.5546875 Z M276.3125 176.5 C276.01706299 177.09200195 275.72162598 177.68400391 275.41723633 178.29394531 C268.21097203 192.64288515 260.40647252 206.26601552 251.3125 219.5 C250.85069336 220.17417969 250.38888672 220.84835938 249.91308594 221.54296875 C244.42169925 229.51133855 238.55079828 237.09915695 232.3125 244.5 C231.54808594 245.45003906 230.78367187 246.40007812 229.99609375 247.37890625 C222.94024043 256.02630543 215.11708563 263.91188139 207.25 271.8125 C206.69555206 272.37212433 206.14110413 272.93174866 205.56985474 273.5083313 C198.48413294 280.64609919 191.21273088 287.25436847 183.3125 293.5 C182.13835512 294.47618836 180.96726189 295.45607237 179.80078125 296.44140625 C162.46602173 310.85372734 143.14401488 322.85050265 123.3125 333.5 C122.02690186 334.19319336 122.02690186 334.19319336 120.71533203 334.90039062 C101.74253939 345.0220446 81.75817487 352.88631297 61.3125 359.5 C64.58104922 362.92278444 67.77706375 364.9970197 72.0625 366.9375 C72.71573242 367.2368042 73.36896484 367.5361084 74.04199219 367.84448242 C101.90370481 380.24698919 133.4710169 381.68718946 162.0390625 370.73828125 C177.8304864 364.30270096 191.85256526 355.08631968 204.3125 343.5 C204.9091748 342.94715332 205.50584961 342.39430664 206.12060547 341.82470703 C221.28901522 327.60407607 233.00920232 311.49964012 243.3125 293.5 C243.7038916 292.82565918 244.0952832 292.15131836 244.49853516 291.45654297 C263.22805236 258.90532836 278.28361869 214.52696326 277.3125 176.5 C276.9825 176.5 276.6525 176.5 276.3125 176.5 Z " fill-rule="evenodd"  transform="translate(141.6875,-0.5)"/>
<path d="M0 0 C0.74120087 0.00010071 1.48240173 0.00020142 2.24606323 0.00030518 C18.63143392 0.0435251 34.54078646 2.27483718 50.50566101 6.01361084 C57.17534707 7.50069046 63.56742827 7.81073922 70.38671875 7.84375 C72.10507179 7.8644606 72.10507179 7.8644606 73.85813904 7.8855896 C76.30506427 7.91506031 78.75203586 7.94087496 81.19903564 7.96331787 C87.63437587 8.02542368 94.06909329 8.12440895 100.50390625 8.2265625 C101.78134705 8.24679474 103.05878784 8.26702698 104.37493896 8.28787231 C242.43110428 10.64126647 242.43110428 10.64126647 282.5625 48.3125 C297.75292465 64.31059549 299.80284159 83.18832316 299.59375 104.21484375 C299.34897023 113.64253646 297.72653051 122.4134133 295.3125 131.5 C295.13589844 132.20560059 294.95929688 132.91120117 294.77734375 133.63818359 C291.42059376 146.95639997 286.45493338 160.21513324 280.3125 172.5 C280.08030127 174.16293115 279.895431 175.83258425 279.734375 177.50390625 C273.68998865 236.66632305 254.24249044 295.01243191 212.3125 338.5 C211.15041016 339.75683594 211.15041016 339.75683594 209.96484375 341.0390625 C190.41989103 361.59552362 161.32576456 378.33767178 132.48217773 379.62646484 C110.94242609 380.14295832 88.45677609 379.13605352 69.6171875 367.27734375 C63.79754659 363.70763933 59.65720569 361.97636982 52.75 363.29296875 C47.52432497 364.54907559 42.38889481 366.09979066 37.24609375 367.65625 C7.70737832 376.15207228 -26.64306176 373.87760555 -53.8125 359.375 C-56.49329353 357.85902411 -59.00052777 356.27819994 -61.515625 354.49609375 C-64.97826319 352.31701971 -68.46780439 350.99185065 -72.3125 349.6875 C-85.28421205 345.00095557 -95.01186857 338.16186808 -104.6875 328.5 C-105.41839844 327.78070313 -106.14929688 327.06140625 -106.90234375 326.3203125 C-125.78829529 306.49941286 -133.61474154 277.31605307 -137.9375 251.0625 C-138.08864258 250.14839355 -138.23978516 249.23428711 -138.39550781 248.29248047 C-141.55482977 227.47162163 -142.06405295 206.61602943 -142.05810547 185.60327148 C-142.05794272 182.57763826 -142.07190243 179.55260933 -142.09912109 176.52709961 C-142.54703794 125.90907907 -129.75728706 75.60835965 -93.54296875 38.35546875 C-92.59368317 37.40111524 -91.6419975 36.4491408 -90.6875 35.5 C-89.87925781 34.69175781 -89.07101563 33.88351563 -88.23828125 33.05078125 C-75.36001298 20.85367758 -59.56634395 12.03020753 -42.875 6.25 C-42.21330811 6.01571289 -41.55161621 5.78142578 -40.86987305 5.54003906 C-27.594909 1.18943371 -13.88130565 -0.08046906 0 0 Z M-94.9921875 42.5546875 C-137.53072716 89.03883084 -142.65801117 150.22969177 -140.08984375 210.19921875 C-138.16013857 248.37871729 -133.13174496 295.18225492 -105.6875 324.5 C-104.84445313 325.42167969 -104.00140625 326.34335937 -103.1328125 327.29296875 C-93.0239274 337.90300255 -81.66661255 343.92536977 -68.25 349.515625 C-64.02806652 351.2948684 -60.3205089 353.33355522 -56.5 355.875 C-28.16586742 374.22734385 6.04342805 372.66014618 37.83642578 366.29882812 C42.65019802 365.19258689 47.34955109 363.77101411 52.05639648 362.27832031 C59.01742254 360.61439656 63.53518614 361.68995833 69.625 365.125 C75.48357553 368.23470613 81.3281401 370.78472834 87.625 372.875 C88.32858643 373.11299316 89.03217285 373.35098633 89.75708008 373.59619141 C117.27435937 382.44433477 147.704989 378.61194866 173.18359375 365.62988281 C184.62869259 359.55558036 194.8306542 352.31703628 204.3125 343.5 C205.20751221 342.67072998 205.20751221 342.67072998 206.12060547 341.82470703 C221.28901522 327.60407607 233.00920232 311.49964012 243.3125 293.5 C243.7038916 292.82565918 244.0952832 292.15131836 244.49853516 291.45654297 C262.53079498 260.11713614 271.99794887 224.10212422 276.63671875 188.45703125 C276.86159028 186.80463453 277.08686971 185.15229328 277.3125 183.5 C277.43020752 182.55979004 277.54791504 181.61958008 277.66918945 180.65087891 C278.75676785 172.96966103 281.08383435 166.36163179 284.125 159.25 C285.03388051 157.04067622 285.93884518 154.82973737 286.83984375 152.6171875 C287.27022949 151.56112305 287.70061523 150.50505859 288.14404297 149.41699219 C298.63907045 123.21670211 303.11022863 92.77122449 292.84375 65.8515625 C285.85340125 50.55125835 272.8348734 40.97153394 258.3125 33.5 C257.47847656 33.05140625 256.64445312 32.6028125 255.78515625 32.140625 C249.55106289 29.02863026 242.94865907 27.00134054 236.3125 24.9375 C235.41797119 24.65640381 234.52344238 24.37530762 233.60180664 24.08569336 C217.97627262 19.38230505 201.99703861 16.76361275 185.8125 14.9375 C184.90476837 14.83360962 183.99703674 14.72971924 183.0617981 14.62268066 C154.19560995 11.35950588 125.17603107 9.58348264 96.12890625 9.2734375 C94.85035263 9.25853271 93.57179901 9.24362793 92.25450134 9.22827148 C86.07453333 9.16142695 79.89685944 9.12459061 73.71655273 9.14160156 C59.54584071 9.10190612 46.31203781 7.62301436 32.44213867 4.69995117 C-15.00072489 -5.15238404 -61.09018739 7.87999223 -94.9921875 42.5546875 Z " transform="translate(141.6875,-0.5)"/>
</svg>
